<?xml version="1.0" encoding="UTF-8" standalone="no"?><!DOCTYPE svg PUBLIC "-//W3C//DTD SVG 1.1//EN" "http://www.w3.org/Graphics/SVG/1.1/DTD/svg11.dtd"><svg width="100%" height="100%" viewBox="0 0 55 59" version="1.1" xmlns="http://www.w3.org/2000/svg" xmlns:xlink="http://www.w3.org/1999/xlink" xml:space="preserve" xmlns:serif="http://www.serif.com/" style="fill-rule:evenodd;clip-rule:evenodd;stroke-linejoin:round;stroke-miterlimit:1.41421;"><g><path d="M50.395,32.275l-6.739,-11.853c-0.54,-0.802 -1.318,-1.35 -2.153,-1.482c-0.58,-0.107 -1.178,0.036 -1.646,0.395c-1.166,0.903 -1.374,2.186 -0.611,3.816l2.262,4.789l2.592,4.555c4.137,7.563 2.798,14.825 -3.971,21.594c-0.481,0.481 -0.974,0.907 -1.476,1.309c2.63,-0.156 5.335,-1.265 7.947,-3.877c7.076,-7.078 6.6,-14.582 3.795,-19.246Zm-11.575,20.505c6.206,-6.203 7.402,-12.544 3.662,-19.383l-6.254,-11.007c-0.541,-0.8 -1.318,-1.348 -2.153,-1.481c-0.58,-0.109 -1.18,0.034 -1.648,0.394c-1.166,0.907 -1.374,2.188 -0.611,3.816l3.185,6.735c0.054,0.121 0.082,0.251 0.082,0.383c0,0.51 -0.42,0.93 -0.929,0.93c-0.241,0 -0.473,-0.094 -0.646,-0.261l-16.496,-16.496c-0.457,-0.423 -1.056,-0.657 -1.678,-0.657c-1.356,0 -2.472,1.116 -2.472,2.472c0,0.621 0.234,1.22 0.656,1.676l9.798,9.798c0.167,0.173 0.26,0.404 0.26,0.643c0,0.508 -0.418,0.926 -0.926,0.926c-0.24,0 -0.471,-0.093 -0.643,-0.26l-9.798,-9.798l-2.762,-2.762c-0.932,-0.931 -2.559,-0.935 -3.494,0c-0.955,0.959 -0.955,2.533 0,3.492l2.764,2.762l9.798,9.798c0.176,0.174 0.275,0.411 0.275,0.658c0,0.506 -0.417,0.923 -0.924,0.923c-0.002,0 -0.003,0 -0.005,0c-0.245,0 -0.481,-0.098 -0.655,-0.272l-9.798,-9.796c-0.96,-0.955 -2.534,-0.955 -3.494,0c-0.954,0.96 -0.954,2.534 0,3.494l4.129,4.125l6.151,6.154c0.174,0.174 0.272,0.41 0.272,0.656c0,0.506 -0.417,0.923 -0.923,0.923c-0.001,0 -0.002,0 -0.003,0c-0.245,0.001 -0.481,-0.097 -0.655,-0.27l-6.153,-6.154c-0.462,-0.463 -1.091,-0.724 -1.746,-0.724c-0.654,0 -1.283,0.261 -1.746,0.724c-0.464,0.462 -0.724,1.091 -0.722,1.746c0,0.659 0.256,1.279 0.722,1.746l11.842,11.844c6.532,6.535 16.404,9.836 23.738,2.505l0,-0.002Zm-18.289,-35.469l10.517,10.517l-0.908,-1.92c-0.959,-2.05 -0.788,-3.944 0.415,-5.351l-6.115,-6.117c-0.96,-0.955 -2.533,-0.955 -3.492,0c-0.464,0.462 -0.725,1.092 -0.722,1.747c0,0.402 0.124,0.778 0.305,1.124Zm27.378,35.519c-2.961,2.962 -6.327,4.428 -9.911,4.428c-0.646,0 -1.296,-0.055 -1.959,-0.151c-2.098,1.086 -4.427,1.649 -6.789,1.642c-5.645,0 -11.322,-3.011 -15.477,-7.165l-11.842,-11.844c-0.813,-0.808 -1.27,-1.909 -1.266,-3.055c-0.004,-2.085 1.507,-3.889 3.56,-4.251l-1.62,-1.62c-1.67,-1.678 -1.67,-4.432 0,-6.11c0.625,-0.625 1.426,-1.043 2.296,-1.198l-0.257,-0.257c-1.685,-1.685 -1.685,-4.425 0,-6.11c1.637,-1.637 4.482,-1.633 6.112,0l0.255,0.259c0.368,-2.052 2.171,-3.559 4.255,-3.559c1.145,0 2.244,0.454 3.055,1.263l0.172,0.171c0.168,-0.783 0.539,-1.533 1.148,-2.142c1.677,-1.674 4.433,-1.674 6.11,0l6.265,6.269c0.734,-0.342 1.555,-0.454 2.353,-0.321c0.989,0.16 1.907,0.656 2.668,1.417c0.204,-1.017 0.768,-1.915 1.687,-2.626c0.872,-0.673 1.989,-0.949 3.075,-0.759c1.346,0.217 2.564,1.046 3.431,2.337l6.761,11.892c3.155,5.243 3.75,13.658 -4.082,21.49Zm-26.476,-51.767l-3.549,1.633l4.388,5.252l-0.841,-6.885l0.002,0Zm15.713,1.623l-3.569,-1.592l-0.815,6.845l4.384,-5.253Zm-9.635,3.577l-1.892,-6.106l3.785,0l-1.893,6.106Z" style="fill:#8d8d8d;"/></g></svg>