<?xml version="1.0" encoding="UTF-8" standalone="no"?><!DOCTYPE svg PUBLIC "-//W3C//DTD SVG 1.1//EN" "http://www.w3.org/Graphics/SVG/1.1/DTD/svg11.dtd"><svg width="100%" height="100%" viewBox="0 0 45 41" version="1.1" xmlns="http://www.w3.org/2000/svg" xmlns:xlink="http://www.w3.org/1999/xlink" xml:space="preserve" xmlns:serif="http://www.serif.com/" style="fill-rule:evenodd;clip-rule:evenodd;stroke-linejoin:round;stroke-miterlimit:1.41421;"><g><path d="M20.349,39.243c0.557,0.557 1.305,0.867 2.09,0.867c0.776,0 1.543,-0.32 2.09,-0.867l16.401,-16.401c2.492,-2.491 3.861,-5.804 3.87,-9.318c0,-3.523 -1.369,-6.836 -3.861,-9.328c-2.492,-2.491 -5.795,-3.86 -9.318,-3.86c-3.459,0 -6.717,1.323 -9.191,3.733c-2.482,-2.419 -5.75,-3.751 -9.218,-3.751c-3.513,0 -6.817,1.369 -9.309,3.851c-2.491,2.492 -3.86,5.805 -3.86,9.327c0,3.514 1.378,6.827 3.869,9.319l16.437,16.428Zm-14.858,-33.486c2.063,-2.063 4.81,-3.203 7.73,-3.203c2.921,0 5.677,1.14 7.749,3.212l0.675,0.676c0.21,0.209 0.493,0.328 0.794,0.328c0.292,0 0.584,-0.119 0.794,-0.328l0.657,-0.658c2.072,-2.071 4.819,-3.212 7.749,-3.212c2.921,0 5.668,1.141 7.73,3.203c2.072,2.072 3.204,4.819 3.204,7.74c0,2.92 -1.141,5.667 -3.213,7.739l-16.41,16.41c-0.264,0.265 -0.748,0.265 -1.022,0l-16.428,-16.428c-2.071,-2.072 -3.212,-4.819 -3.212,-7.74c0,-2.92 1.141,-5.667 3.203,-7.739Z" style="fill:#8d8d8d;fill-rule:nonzero;"/></g></svg>