<?xml version="1.0" encoding="UTF-8" standalone="no"?><!DOCTYPE svg PUBLIC "-//W3C//DTD SVG 1.1//EN" "http://www.w3.org/Graphics/SVG/1.1/DTD/svg11.dtd"><svg width="100%" height="100%" viewBox="0 0 50 50" version="1.1" xmlns="http://www.w3.org/2000/svg" xmlns:xlink="http://www.w3.org/1999/xlink" xml:space="preserve" xmlns:serif="http://www.serif.com/" style="fill-rule:evenodd;clip-rule:evenodd;stroke-linejoin:round;stroke-miterlimit:1.41421;"><g><g><path d="M1.673,45.401c-0.751,0.371 -1.171,1.171 -1.041,1.992c0.13,0.831 0.761,1.471 1.591,1.601c0.611,0.101 1.272,0.141 1.942,0.141c1.822,0 5.295,-0.371 8.698,-2.793c3.613,1.992 7.696,3.043 11.85,3.043c6.556,0 12.711,-2.552 17.345,-7.186c9.568,-9.569 9.568,-25.122 0,-34.69c-4.634,-4.624 -10.789,-7.177 -17.345,-7.177c-6.556,0 -12.711,2.553 -17.345,7.187c-8.998,8.997 -9.588,23.42 -1.451,33.098c-1.121,2.342 -2.553,3.954 -4.244,4.784Zm7.096,-36.481c4.254,-4.254 9.919,-6.606 15.944,-6.606c6.025,0 11.68,2.342 15.944,6.606c8.787,8.787 8.787,23.09 0,31.887c-4.254,4.254 -9.919,6.606 -15.944,6.606c-4.024,0 -7.967,-1.071 -11.42,-3.103c-0.16,-0.09 -0.33,-0.14 -0.5,-0.14c-0.221,0 -0.431,0.07 -0.611,0.21c-3.113,2.413 -6.365,2.773 -8.027,2.773c-0.48,0 -0.951,-0.03 -1.401,-0.09c2.162,-1.131 3.913,-3.223 5.224,-6.216c0.151,-0.35 0.091,-0.76 -0.17,-1.051c-7.867,-8.897 -7.446,-22.459 0.961,-30.876Z" style="fill:#afafaf;fill-rule:nonzero;"/><g><path d="M20.193,32.437c0.3,0.299 0.693,0.457 1.103,0.457c0.409,0 0.803,-0.158 1.102,-0.457l12.948,-12.948c0.615,-0.614 0.615,-1.591 0,-2.205c-0.614,-0.614 -1.59,-0.614 -2.205,0l-11.845,11.845l-5.009,-5.009c-0.615,-0.614 -1.591,-0.614 -2.205,0c-0.615,0.615 -0.615,1.591 0,2.205l6.111,6.112Z" style="fill:#afafaf;fill-rule:nonzero;"/></g></g></g></svg>