<?xml version="1.0" encoding="UTF-8" standalone="no"?><!DOCTYPE svg PUBLIC "-//W3C//DTD SVG 1.1//EN" "http://www.w3.org/Graphics/SVG/1.1/DTD/svg11.dtd"><svg width="100%" height="100%" viewBox="0 0 7 28" version="1.1" xmlns="http://www.w3.org/2000/svg" xmlns:xlink="http://www.w3.org/1999/xlink" xml:space="preserve" xmlns:serif="http://www.serif.com/" style="fill-rule:evenodd;clip-rule:evenodd;stroke-linejoin:round;stroke-miterlimit:1.41421;"><g><path d="M0.285,14.016c0,-1.636 1.328,-2.964 2.965,-2.964c1.636,0 2.964,1.328 2.964,2.964c0,1.637 -1.328,2.965 -2.964,2.965c-1.637,0 -2.965,-1.328 -2.965,-2.965Z" style="fill:#afafaf;"/><path d="M0.285,3.639c0,-1.636 1.328,-2.965 2.965,-2.965c1.636,0 2.964,1.329 2.964,2.965c0,1.637 -1.328,2.965 -2.964,2.965c-1.637,0 -2.965,-1.328 -2.965,-2.965Z" style="fill:#afafaf;"/><path d="M0.285,24.394c0,-1.637 1.328,-2.965 2.965,-2.965c1.636,0 2.964,1.328 2.964,2.965c0,1.636 -1.328,2.964 -2.964,2.964c-1.637,0 -2.965,-1.328 -2.965,-2.964Z" style="fill:#afafaf;"/></g></svg>