<?xml version="1.0" encoding="UTF-8" standalone="no"?><!DOCTYPE svg PUBLIC "-//W3C//DTD SVG 1.1//EN" "http://www.w3.org/Graphics/SVG/1.1/DTD/svg11.dtd"><svg width="100%" height="100%" viewBox="0 0 42 42" version="1.1" xmlns="http://www.w3.org/2000/svg" xmlns:xlink="http://www.w3.org/1999/xlink" xml:space="preserve" xmlns:serif="http://www.serif.com/" style="fill-rule:evenodd;clip-rule:evenodd;stroke-linejoin:round;stroke-miterlimit:1.41421;"><path id="Search" d="M40.709,35.485l-8.98,-8.98c-0.048,-0.048 -0.104,-0.081 -0.154,-0.126c1.767,-2.68 2.798,-5.889 2.798,-9.339c0,-9.386 -7.608,-16.995 -16.994,-16.995c-9.386,0 -16.995,7.609 -16.995,16.995c0,9.386 7.609,16.995 16.995,16.995c3.45,0 6.659,-1.032 9.339,-2.799c0.044,0.05 0.078,0.106 0.125,0.154l8.981,8.98c1.349,1.349 3.536,1.349 4.885,0c1.349,-1.349 1.349,-3.536 0,-4.885Zm-23.33,-7.342c-6.133,0 -11.104,-4.971 -11.104,-11.103c0,-6.132 4.972,-11.103 11.104,-11.103c6.132,0 11.103,4.971 11.103,11.103c0,6.132 -4.971,11.103 -11.103,11.103Z" style="fill:#a7a7a7;"/></svg>