<?xml version="1.0" encoding="UTF-8" standalone="no"?><!DOCTYPE svg PUBLIC "-//W3C//DTD SVG 1.1//EN" "http://www.w3.org/Graphics/SVG/1.1/DTD/svg11.dtd"><svg width="100%" height="100%" viewBox="0 0 42 41" version="1.1" xmlns="http://www.w3.org/2000/svg" xmlns:xlink="http://www.w3.org/1999/xlink" xml:space="preserve" xmlns:serif="http://www.serif.com/" style="fill-rule:evenodd;clip-rule:evenodd;stroke-linejoin:round;stroke-miterlimit:1.41421;"><g><path d="M38.421,10.619c-1.799,-3.081 -4.238,-5.52 -7.319,-7.318c-3.081,-1.798 -6.445,-2.697 -10.094,-2.697c-3.648,0 -7.013,0.899 -10.094,2.697c-3.081,1.798 -5.52,4.237 -7.319,7.318c-1.798,3.081 -2.697,6.446 -2.697,10.094c0,3.649 0.899,7.013 2.697,10.094c1.798,3.081 4.237,5.521 7.319,7.319c3.081,1.798 6.445,2.697 10.094,2.697c3.648,0 7.013,-0.899 10.094,-2.697c3.081,-1.798 5.52,-4.238 7.318,-7.319c1.798,-3.081 2.697,-6.445 2.697,-10.094c0,-3.648 -0.899,-7.013 -2.696,-10.094Zm-5.682,11.77c0,0.454 -0.167,0.847 -0.498,1.178c-0.332,0.332 -0.725,0.498 -1.178,0.498l-6.704,0l0,6.703c0,0.454 -0.166,0.847 -0.498,1.179c-0.331,0.331 -0.724,0.497 -1.178,0.497l-3.351,0c-0.454,0 -0.847,-0.166 -1.178,-0.497c-0.332,-0.332 -0.498,-0.725 -0.498,-1.179l0,-6.703l-6.703,0c-0.454,0 -0.847,-0.166 -1.179,-0.498c-0.331,-0.331 -0.497,-0.724 -0.497,-1.178l0,-3.352c0,-0.453 0.166,-0.846 0.497,-1.178c0.332,-0.332 0.725,-0.497 1.179,-0.497l6.703,0l0,-6.704c0,-0.454 0.166,-0.846 0.498,-1.178c0.331,-0.332 0.724,-0.497 1.178,-0.497l3.352,0c0.454,0 0.847,0.166 1.178,0.497c0.331,0.332 0.498,0.724 0.498,1.178l0,6.704l6.703,0c0.453,0 0.846,0.165 1.178,0.497c0.331,0.332 0.498,0.724 0.498,1.178l0,3.352Z" style="fill:#a7a7a7;fill-rule:nonzero;"/></g></svg>