<?xml version="1.0" encoding="UTF-8" standalone="no"?><!DOCTYPE svg PUBLIC "-//W3C//DTD SVG 1.1//EN" "http://www.w3.org/Graphics/SVG/1.1/DTD/svg11.dtd"><svg width="100%" height="100%" viewBox="0 0 50 50" version="1.1" xmlns="http://www.w3.org/2000/svg" xmlns:xlink="http://www.w3.org/1999/xlink" xml:space="preserve" xmlns:serif="http://www.serif.com/" style="fill-rule:evenodd;clip-rule:evenodd;stroke-linejoin:round;stroke-miterlimit:1.41421;"><g><path d="M0.474,25.34c0,13.546 10.981,24.527 24.526,24.527c13.545,0 24.526,-10.981 24.526,-24.527c0,-13.545 -10.981,-24.526 -24.526,-24.526c-13.545,0 -24.526,10.981 -24.526,24.526Zm45.986,0c0,11.853 -9.608,21.461 -21.46,21.461c-11.852,0 -21.46,-9.608 -21.46,-21.461c0,-11.852 9.608,-21.46 21.46,-21.46c11.852,0 21.46,9.608 21.46,21.46Z" style="fill:#afafaf;fill-rule:nonzero;"/><path d="M21.934,25.34c0,-1.692 1.374,-3.065 3.066,-3.065c1.692,0 3.066,1.373 3.066,3.065c0,1.692 -1.374,3.066 -3.066,3.066c-1.692,0 -3.066,-1.374 -3.066,-3.066Z" style="fill:#afafaf;"/><path d="M21.934,14.61c0,-1.692 1.374,-3.066 3.066,-3.066c1.692,0 3.066,1.374 3.066,3.066c0,1.692 -1.374,3.066 -3.066,3.066c-1.692,0 -3.066,-1.374 -3.066,-3.066Z" style="fill:#afafaf;"/><path d="M21.934,36.071c0,-1.692 1.374,-3.066 3.066,-3.066c1.692,0 3.066,1.374 3.066,3.066c0,1.692 -1.374,3.065 -3.066,3.065c-1.692,0 -3.066,-1.373 -3.066,-3.065Z" style="fill:#afafaf;"/></g></svg>