<?xml version="1.0" encoding="UTF-8" standalone="no"?><!DOCTYPE svg PUBLIC "-//W3C//DTD SVG 1.1//EN" "http://www.w3.org/Graphics/SVG/1.1/DTD/svg11.dtd"><svg width="100%" height="100%" viewBox="0 0 21 28" version="1.1" xmlns="http://www.w3.org/2000/svg" xmlns:xlink="http://www.w3.org/1999/xlink" xml:space="preserve" xmlns:serif="http://www.serif.com/" style="fill-rule:evenodd;clip-rule:evenodd;stroke-linejoin:round;stroke-miterlimit:1.41421;"><path d="M16.719,0.255l-13.103,0c-1.922,0.006 -3.502,1.585 -3.508,3.507l0,21.988c0,0 0,0.001 0,0.001c0,0.752 0.619,1.37 1.371,1.37c0.274,0 0.542,-0.082 0.769,-0.235l7.919,-5.37l7.92,5.37c0.226,0.153 0.494,0.235 0.768,0.235c0.752,0 1.37,-0.618 1.371,-1.37l0,-21.983c-0.004,-1.923 -1.584,-3.506 -3.507,-3.513Zm2.166,25.481l-7.927,-5.304l-0.198,-0.143c-0.353,-0.257 -0.833,-0.257 -1.186,0l-0.197,0.143l-7.927,5.304l0,-21.974c0,-1.194 0.972,-2.166 2.166,-2.166l13.103,0c1.193,0 2.166,0.972 2.166,2.166l0,21.974Z" style="fill:#9d9d9d;"/></svg>