<?xml version="1.0" encoding="UTF-8" standalone="no"?><!DOCTYPE svg PUBLIC "-//W3C//DTD SVG 1.1//EN" "http://www.w3.org/Graphics/SVG/1.1/DTD/svg11.dtd"><svg width="100%" height="100%" viewBox="0 0 33 44" version="1.1" xmlns="http://www.w3.org/2000/svg" xmlns:xlink="http://www.w3.org/1999/xlink" xml:space="preserve" xmlns:serif="http://www.serif.com/" style="fill-rule:evenodd;clip-rule:evenodd;stroke-linejoin:round;stroke-miterlimit:1.41421;"><g><path id="mic" d="M16.13,28.089c3.865,0 6.821,-2.955 6.821,-6.82l0,-13.642c0,-3.865 -2.956,-6.821 -6.821,-6.821c-3.865,0 -6.821,2.956 -6.821,6.821l0,13.642c0,3.865 2.956,6.82 6.821,6.82Zm12.05,-6.82c0,6.82 -5.684,11.595 -12.05,11.595c-6.366,0 -12.05,-4.775 -12.05,-11.595l-3.865,0c0,7.73 6.138,14.096 13.641,15.233l0,7.503l4.548,0l0,-7.503c7.503,-1.137 13.641,-7.503 13.641,-15.233l-3.865,0Z" style="fill:#7c7c7c;fill-rule:nonzero;"/></g></svg>