<?xml version="1.0" encoding="UTF-8" standalone="no"?><!DOCTYPE svg PUBLIC "-//W3C//DTD SVG 1.1//EN" "http://www.w3.org/Graphics/SVG/1.1/DTD/svg11.dtd"><svg width="100%" height="100%" viewBox="0 0 1920 279" version="1.1" xmlns="http://www.w3.org/2000/svg" xmlns:xlink="http://www.w3.org/1999/xlink" xml:space="preserve" xmlns:serif="http://www.serif.com/" style="fill-rule:evenodd;clip-rule:evenodd;stroke-linejoin:round;stroke-miterlimit:1.41421;"><path d="M0,164.723c96.736,0 115.87,-50.398 242.25,-58.608c104.066,-6.76 143.283,95.839 261.749,93.5c73.953,-1.46 98.009,-76.589 167.54,-88.944c65.57,-11.651 134.285,15.489 197.244,28.781c68.995,14.567 150.915,20.894 220.833,10.836c74.395,-10.701 143.5,-61.433 208.435,-95.359c62.855,-32.839 133.567,-50.191 204.217,-53.661c48.463,-2.381 113.122,10.628 158.242,29.214c27.522,11.337 52.278,28.481 80.327,38.751c58.439,21.397 117.917,37.23 179.163,48.113l0,161.654l-1920,0l0,-114.277Z" style="fill:url(#_Linear1);"/><defs><linearGradient id="_Linear1" x1="0" y1="0" x2="1" y2="0" gradientUnits="userSpaceOnUse" gradientTransform="matrix(1586.08,1.46198e-13,-1.13687e-13,2039.66,242.769,139.993)"><stop offset="0" style="stop-color:#a154d0;stop-opacity:1"/><stop offset="0.43" style="stop-color:#be888f;stop-opacity:1"/><stop offset="1" style="stop-color:#fffc00;stop-opacity:1"/></linearGradient></defs></svg>