<?xml version="1.0" encoding="UTF-8" standalone="no"?><!DOCTYPE svg PUBLIC "-//W3C//DTD SVG 1.1//EN" "http://www.w3.org/Graphics/SVG/1.1/DTD/svg11.dtd"><svg width="100%" height="100%" viewBox="0 0 35 35" version="1.1" xmlns="http://www.w3.org/2000/svg" xmlns:xlink="http://www.w3.org/1999/xlink" xml:space="preserve" xmlns:serif="http://www.serif.com/" style="fill-rule:evenodd;clip-rule:evenodd;stroke-linejoin:round;stroke-miterlimit:1.41421;"><g><path id="Search" d="M33.951,29.382l-7.434,-7.435c-0.04,-0.039 -0.086,-0.067 -0.127,-0.104c1.463,-2.219 2.316,-4.875 2.316,-7.732c0,-7.77 -6.299,-14.069 -14.069,-14.069c-7.771,0 -14.07,6.299 -14.07,14.069c0,7.771 6.299,14.07 14.069,14.07c2.857,0 5.513,-0.854 7.732,-2.317c0.037,0.042 0.065,0.088 0.104,0.127l7.435,7.435c1.117,1.117 2.927,1.117 4.044,0c1.117,-1.117 1.117,-2.927 0,-4.044Zm-19.314,-6.078c-5.077,0 -9.193,-4.116 -9.193,-9.193c0,-5.077 4.116,-9.192 9.193,-9.192c5.076,0 9.192,4.116 9.192,9.192c0,5.077 -4.116,9.193 -9.192,9.193Z" style="fill:#fff;"/></g></svg>