<?xml version="1.0" encoding="UTF-8" standalone="no"?><!DOCTYPE svg PUBLIC "-//W3C//DTD SVG 1.1//EN" "http://www.w3.org/Graphics/SVG/1.1/DTD/svg11.dtd"><svg width="100%" height="100%" viewBox="0 0 24 24" version="1.1" xmlns="http://www.w3.org/2000/svg" xmlns:xlink="http://www.w3.org/1999/xlink" xml:space="preserve" xmlns:serif="http://www.serif.com/" style="fill-rule:evenodd;clip-rule:evenodd;stroke-linejoin:round;stroke-miterlimit:1.41421;"><g><path d="M11.62,14.167c0.157,0.158 0.339,0.236 0.544,0.236c0.205,0 0.386,-0.078 0.543,-0.236l11.023,-11.021c0.157,-0.158 0.235,-0.339 0.235,-0.544c0,-0.205 -0.078,-0.387 -0.235,-0.544l-1.183,-1.183c-0.157,-0.158 -0.339,-0.236 -0.544,-0.236c-0.205,0 -0.386,0.078 -0.544,0.236l-9.295,9.295l-9.295,-9.295c-0.158,-0.158 -0.339,-0.236 -0.544,-0.236c-0.205,0 -0.386,0.078 -0.544,0.236l-1.182,1.183c-0.158,0.157 -0.237,0.338 -0.237,0.544c0,0.205 0.079,0.386 0.237,0.544l11.021,11.021Z" style="fill:#a7a7a7;fill-rule:nonzero;"/><path d="M22.547,9.957c-0.157,-0.158 -0.339,-0.236 -0.544,-0.236c-0.205,0 -0.386,0.078 -0.544,0.236l-9.295,9.295l-9.295,-9.295c-0.158,-0.158 -0.339,-0.236 -0.544,-0.236c-0.205,0 -0.386,0.078 -0.544,0.236l-1.182,1.183c-0.158,0.157 -0.237,0.339 -0.237,0.543c0,0.205 0.079,0.387 0.237,0.545l11.021,11.021c0.157,0.158 0.339,0.237 0.544,0.237c0.205,0 0.386,-0.079 0.543,-0.237l11.023,-11.021c0.157,-0.158 0.235,-0.339 0.235,-0.544c0,-0.205 -0.078,-0.386 -0.235,-0.544l-1.183,-1.183Z" style="fill:#a7a7a7;fill-rule:nonzero;"/></g></svg>