<?xml version="1.0" encoding="UTF-8" standalone="no"?><!DOCTYPE svg PUBLIC "-//W3C//DTD SVG 1.1//EN" "http://www.w3.org/Graphics/SVG/1.1/DTD/svg11.dtd"><svg width="100%" height="100%" viewBox="0 0 33 45" version="1.1" xmlns="http://www.w3.org/2000/svg" xmlns:xlink="http://www.w3.org/1999/xlink" xml:space="preserve" xmlns:serif="http://www.serif.com/" style="fill-rule:evenodd;clip-rule:evenodd;stroke-linejoin:round;stroke-miterlimit:1.41421;"><g><path d="M16.589,0.002c-8.604,0 -15.603,6.999 -15.603,15.602c0,2.907 0.805,5.744 2.329,8.205l12.385,19.958c0.238,0.383 0.656,0.615 1.105,0.615c0.004,0 0.007,0 0.011,0c0.453,-0.004 0.872,-0.243 1.105,-0.632l12.069,-20.152c1.44,-2.409 2.201,-5.173 2.201,-7.994c0,-8.603 -6.999,-15.602 -15.602,-15.602Zm11.17,22.261l-10.973,18.321l-11.261,-18.145c-1.268,-2.049 -1.956,-4.412 -1.956,-6.835c0,-7.169 5.85,-13.019 13.02,-13.019c7.169,0 13.01,5.85 13.01,13.019c0,2.351 -0.642,4.654 -1.84,6.659Z" style="fill:#7c7c7c;fill-rule:nonzero;"/><path d="M16.589,7.803c-4.302,0 -7.802,3.5 -7.802,7.801c0,4.274 3.443,7.801 7.802,7.801c4.412,0 7.801,-3.574 7.801,-7.801c0,-4.301 -3.5,-7.801 -7.801,-7.801Z" style="fill:#7c7c7c;fill-rule:nonzero;"/></g></svg>