<?xml version="1.0" encoding="UTF-8" standalone="no"?><!DOCTYPE svg PUBLIC "-//W3C//DTD SVG 1.1//EN" "http://www.w3.org/Graphics/SVG/1.1/DTD/svg11.dtd"><svg width="100%" height="100%" viewBox="0 0 48 48" version="1.1" xmlns="http://www.w3.org/2000/svg" xmlns:xlink="http://www.w3.org/1999/xlink" xml:space="preserve" xmlns:serif="http://www.serif.com/" style="fill-rule:evenodd;clip-rule:evenodd;stroke-linejoin:round;stroke-miterlimit:1.41421;"><g><path d="M47.188,10.028l-8.928,-8.916c-0.47,-0.469 -1.228,-0.469 -1.697,0l-7.568,7.556l-23.464,23.416c-0.168,0.144 -0.289,0.325 -0.361,0.529l-4.524,13.513c-0.217,0.625 0.132,1.311 0.758,1.528c0.252,0.084 0.517,0.084 0.758,0l13.524,-4.524c0.205,-0.073 0.386,-0.193 0.53,-0.361l23.415,-23.464l7.557,-7.58c0.469,-0.47 0.469,-1.228 0,-1.697Zm-43.498,34.582l3.14,-9.386l6.245,6.245l-9.385,3.141Zm11.611,-4.332l-7.279,-7.28l21.815,-21.779l7.243,7.244l-21.779,21.815Zm23.476,-23.512l-7.232,-7.243l5.872,-5.86l7.22,7.219l-5.86,5.884Z" style="fill:#a7a7a7;fill-rule:nonzero;"/></g></svg>