<?xml version="1.0" encoding="UTF-8" standalone="no"?><!DOCTYPE svg PUBLIC "-//W3C//DTD SVG 1.1//EN" "http://www.w3.org/Graphics/SVG/1.1/DTD/svg11.dtd"><svg width="100%" height="100%" viewBox="0 0 151 151" version="1.1" xmlns="http://www.w3.org/2000/svg" xmlns:xlink="http://www.w3.org/1999/xlink" xml:space="preserve" xmlns:serif="http://www.serif.com/" style="fill-rule:evenodd;clip-rule:evenodd;stroke-linejoin:round;stroke-miterlimit:1.41421;"><path d="M150.787,75.96c0,-41.393 -33.606,-75 -75,-75c-41.394,0 -75,33.607 -75,75c0,41.394 33.606,75 75,75c41.394,0 75,-33.606 75,-75Zm-39.485,58.132l-23.519,-59.395c11.919,-4.769 20.348,-16.429 20.348,-30.043c0,-17.851 -14.493,-32.344 -32.344,-32.344c-17.851,0 -32.344,14.493 -32.344,32.344c0,13.57 8.375,25.199 20.234,29.997l-23.405,59.441l71.03,0Z" style="fill:#fff;"/></svg>