<?xml version="1.0" encoding="UTF-8" standalone="no"?><!DOCTYPE svg PUBLIC "-//W3C//DTD SVG 1.1//EN" "http://www.w3.org/Graphics/SVG/1.1/DTD/svg11.dtd"><svg width="100%" height="100%" viewBox="0 0 18 114" version="1.1" xmlns="http://www.w3.org/2000/svg" xmlns:xlink="http://www.w3.org/1999/xlink" xml:space="preserve" xmlns:serif="http://www.serif.com/" style="fill-rule:evenodd;clip-rule:evenodd;stroke-linejoin:round;stroke-miterlimit:1.41421;"><g><g><g><path d="M8.576,108.088c0.116,0.122 0.251,0.182 0.402,0.182c0.152,0 0.286,-0.06 0.403,-0.182l8.158,-8.508c0.117,-0.122 0.175,-0.262 0.175,-0.42c0,-0.158 -0.059,-0.299 -0.175,-0.42l-0.875,-0.913c-0.117,-0.122 -0.251,-0.183 -0.403,-0.183c-0.151,0 -0.286,0.061 -0.402,0.183l-6.881,7.175l-6.88,-7.175c-0.116,-0.122 -0.251,-0.183 -0.402,-0.183c-0.152,0 -0.286,0.061 -0.403,0.183l-0.875,0.913c-0.117,0.121 -0.175,0.261 -0.175,0.42c0,0.158 0.058,0.298 0.175,0.42l8.158,8.508Z" style="fill:#a7a7a7;fill-rule:nonzero;"/><path d="M16.664,103.14c-0.117,-0.122 -0.251,-0.182 -0.403,-0.182c-0.151,0 -0.286,0.06 -0.402,0.182l-6.881,7.175l-6.88,-7.175c-0.116,-0.122 -0.251,-0.183 -0.402,-0.183c-0.152,0 -0.286,0.061 -0.403,0.183l-0.875,0.913c-0.117,0.122 -0.175,0.262 -0.175,0.42c0,0.158 0.058,0.298 0.175,0.42l8.158,8.508c0.116,0.122 0.251,0.183 0.402,0.183c0.152,0 0.286,-0.061 0.403,-0.183l8.158,-8.508c0.117,-0.122 0.175,-0.262 0.175,-0.42c0,-0.158 -0.059,-0.298 -0.175,-0.42l-0.875,-0.913Z" style="fill:#a7a7a7;fill-rule:nonzero;"/><path d="M16.664,91.806c-0.117,-0.122 -0.251,-0.182 -0.403,-0.182c-0.151,0 -0.286,0.06 -0.402,0.182l-6.881,7.176l-6.88,-7.176c-0.116,-0.122 -0.251,-0.183 -0.402,-0.183c-0.152,0 -0.286,0.061 -0.403,0.183l-0.875,0.913c-0.117,0.122 -0.175,0.262 -0.175,0.42c0,0.158 0.058,0.298 0.175,0.42l8.158,8.508c0.116,0.122 0.251,0.183 0.402,0.183c0.152,0 0.286,-0.061 0.403,-0.183l8.158,-8.508c0.117,-0.122 0.175,-0.262 0.175,-0.42c0,-0.158 -0.059,-0.298 -0.175,-0.42l-0.875,-0.913Z" style="fill:#a7a7a7;fill-rule:nonzero;"/></g><path d="M10.667,2.658c0,-0.932 -0.757,-1.689 -1.689,-1.689c-0.932,0 -1.689,0.757 -1.689,1.689l0,84.996c0,0.932 0.757,1.689 1.689,1.689c0.932,0 1.689,-0.757 1.689,-1.689l0,-84.996Z" style="fill:#a1a1a1;"/></g></g></svg>