<?xml version="1.0" encoding="UTF-8" standalone="no"?><!DOCTYPE svg PUBLIC "-//W3C//DTD SVG 1.1//EN" "http://www.w3.org/Graphics/SVG/1.1/DTD/svg11.dtd"><svg width="100%" height="100%" viewBox="0 0 44 50" version="1.1" xmlns="http://www.w3.org/2000/svg" xmlns:xlink="http://www.w3.org/1999/xlink" xml:space="preserve" xmlns:serif="http://www.serif.com/" style="fill-rule:evenodd;clip-rule:evenodd;stroke-linejoin:round;stroke-miterlimit:1.41421;"><g><path d="M43.123,19.494l-20.33,-18.636c-0.678,-0.621 -1.695,-0.565 -2.316,0.057l-19.201,18.636c-0.339,0.282 -0.508,0.734 -0.508,1.186l0,26.768c0,0.96 0.734,1.694 1.694,1.694l14.118,0c0.96,0 1.695,-0.734 1.695,-1.694l0,-12.424l7.906,0l0,12.424c0,0.96 0.734,1.694 1.694,1.694l14.118,0c0.96,0 1.695,-0.734 1.695,-1.694l0,-26.768c0,-0.452 -0.226,-0.904 -0.565,-1.243Z" style="fill:#a1a1a1;fill-rule:nonzero;"/></g></svg>